<?xml version="1.0" encoding="UTF-8" standalone="no"?>
<svg
   xmlns:dc="http://purl.org/dc/elements/1.1/"
   xmlns:cc="http://creativecommons.org/ns#"
   xmlns:rdf="http://www.w3.org/1999/02/22-rdf-syntax-ns#"
   xmlns:svg="http://www.w3.org/2000/svg"
   xmlns="http://www.w3.org/2000/svg"
   xmlns:xlink="http://www.w3.org/1999/xlink"
   xmlns:sodipodi="http://sodipodi.sourceforge.net/DTD/sodipodi-0.dtd"
   xmlns:inkscape="http://www.inkscape.org/namespaces/inkscape"
   id="ad7c1fe1-eb22-473c-bc85-8b4fe073a50d"
   data-name="Layer 1"
   width="875"
   height="750"
   viewBox="0 0 875 750"
   version="1.1"
   sodipodi:docname="monitor-on.svg"
   inkscape:version="0.92.2 5c3e80d, 2017-08-06">
  <metadata
     id="metadata3905">
    <rdf:RDF>
      <cc:Work
         rdf:about="">
        <dc:format>image/svg+xml</dc:format>
        <dc:type
           rdf:resource="http://purl.org/dc/dcmitype/StillImage" />
        <dc:title>monitor_on</dc:title>
      </cc:Work>
    </rdf:RDF>
  </metadata>
  <sodipodi:namedview
     pagecolor="#ffffff"
     bordercolor="#666666"
     borderopacity="1"
     objecttolerance="10"
     gridtolerance="10"
     guidetolerance="10"
     inkscape:pageopacity="0"
     inkscape:pageshadow="2"
     inkscape:window-width="1275"
     inkscape:window-height="709"
     id="namedview3903"
     showgrid="false"
     inkscape:zoom="0.95412275"
     inkscape:cx="502.54095"
     inkscape:cy="388.65987"
     inkscape:window-x="0"
     inkscape:window-y="0"
     inkscape:window-maximized="0"
     inkscape:current-layer="ad7c1fe1-eb22-473c-bc85-8b4fe073a50d" />
  <defs
     id="defs3876">
    <pattern
       inkscape:isstock="true"
       inkscape:stockid="Checkerboard white"
       id="Checkerboardwhite"
       patternTransform="translate(0,0) scale(10,10)"
       height="2"
       width="2"
       patternUnits="userSpaceOnUse"
       inkscape:collect="always">
      <rect
         id="rect5508"
         height="1"
         width="1"
         y="0"
         x="0"
         style="fill:white;stroke:none" />
      <rect
         id="rect5510"
         height="1"
         width="1"
         y="1"
         x="1"
         style="fill:white;stroke:none" />
    </pattern>
    <linearGradient
       id="f137b292-0aa2-40b3-a442-9a256144b6d8"
       x1="2938.83"
       y1="215.4"
       x2="2938.83"
       y2="-91.93"
       gradientTransform="matrix(0.51, 0.86, -0.86, 0.51, -713.07, -2373.14)"
       gradientUnits="userSpaceOnUse">
      <stop
         offset="0"
         stop-color="gray"
         stop-opacity="0.25"
         id="stop3868" />
      <stop
         offset="0.54"
         stop-color="gray"
         stop-opacity="0.12"
         id="stop3870" />
      <stop
         offset="1"
         stop-color="gray"
         stop-opacity="0.1"
         id="stop3872" />
    </linearGradient>
    <linearGradient
       id="ab747304-1bb2-44ed-8687-72ce94e318d2"
       x1="1364.21"
       y1="820.42"
       x2="1364.21"
       y2="492.03"
       gradientTransform="matrix(-1, -0.04, -0.04, 1, 2349.24, 29.65)"
       xlink:href="#f137b292-0aa2-40b3-a442-9a256144b6d8" />
  </defs>
  <title
     id="title3878">monitor_on</title>
  <ellipse
     cx="425"
     cy="668.67"
     rx="425"
     ry="33"
     fill="#b8ff63"
     opacity="0.1"
     id="ellipse3880" />
  <ellipse
     cx="800.72"
     cy="752.92"
     rx="275"
     ry="35.77"
     fill="#b8ff63"
     opacity="0.1"
     id="ellipse3882" />
  <path
     d="M527.89,697.6l.28-14.16q20-1.14,40-1.52c7.74-.14,15.58-.19,23.07,1.75,5.19,1.35,10.1,3.63,15.22,5.23,10.2,3.18,21,3.6,31.71,3.89,10.39.29,21.24.39,30.57-4.2,16.15-8,22.94-27.65,23.73-45.64s-2.79-36.12-.3-54"
     transform="translate(-52.64 -55.65)"
     fill="none"
     stroke="#3f3d56"
     stroke-miterlimit="10"
     stroke-width="12"
     id="path3884" />
  <polygon
     points="511.81 669.66 333.62 667.38 334.14 662.81 342.76 587.42 499.24 587.42 510.76 662.81 511.64 668.52 511.81 669.66"
     fill="#d0d2d5"
     id="polygon3886" />
  <polygon
     points="511.64 668.52 422.71 668.52 333.62 667.38 334.14 662.81 510.76 662.81 511.64 668.52"
     opacity="0.1"
     id="polygon3888" />
  <rect
     x="303.92"
     y="663.95"
     width="236.45"
     height="5.71"
     fill="#d0d2d5"
     id="rect3890" />
  <path
     d="M818.6,190.27a14.87,14.87,0,0,0-14.8-15H143.48a14.88,14.88,0,0,0-14.8,15V590.53H818.6Z"
     transform="translate(-52.64 -55.65)"
     fill="#3f3d56"
     id="path3892" />
  <path
     d="M128.68,586.53v46.89a14.8,14.8,0,0,0,14.8,14.8H803.8a14.8,14.8,0,0,0,14.8-14.8V586.53Z"
     transform="translate(-52.64 -55.65)"
     fill="#d0d2d5"
     id="path3894" />
  <rect
     x="104.6"
     y="144.8"
     width="636.22998"
     height="359.81"
     id="rect3896"
     style="opacity:0.91000001;fill-opacity:1.0;fill:url(#Checkerboardwhite)" />
  <path
     d="M477.07,630.43a15.43,15.43,0,0,0,12.13-5.89h0a15.28,15.28,0,0,0,1.2-1.77l-8.46-1.39,9.15.07a15.44,15.44,0,0,0,.29-12.22l-12.27,6.37,11.32-8.32A15.42,15.42,0,1,0,465,624.53h0A15.4,15.4,0,0,0,477.07,630.43Z"
     transform="translate(-52.64 -55.65)"
     fill="#b8ff63"
     id="path3898" />
  <polygon
     points="439.85 592.56 510.94 663.95 500.03 592.56 439.85 592.56"
     opacity="0.1"
     id="polygon3900" />
</svg>
